<svg
    width="60"
    height="60"
    viewBox="0 0 60 60"
    fill="#444444"
    xmlns="http://www.w3.org/2000/svg"
>
    <path
        d="M23.7778 38C23.2889 38 22.8704 37.8259 22.5222 37.4778C22.1741 37.1296 22 36.7111 22 36.2222V23.7778C22 23.2889 22.1741 22.8704 22.5222 22.5222C22.8704 22.1741 23.2889 22 23.7778 22H36.2222C36.7111 22 37.1296 22.1741 37.4778 22.5222C37.8259 22.8704 38 23.2889 38 23.7778V36.2222C38 36.7111 37.8259 37.1296 37.4778 37.4778C37.1296 37.8259 36.7111 38 36.2222 38H23.7778ZM24.6667 30.5111L28.2222 26.9556L31.7778 30.5111L35.3333 26.9556L36.2222 27.8444V23.7778H23.7778V29.6222L24.6667 30.5111ZM23.7778 36.2222H36.2222V30.3556L35.3333 29.4667L31.7778 33.0222L28.2222 29.4667L24.6667 33.0222L23.7778 32.1333V36.2222ZM23.7778 36.2222V30.3556V32.1333V23.7778V36.2222Z"
    />
</svg>