<svg
    width="113"
    height="32"
    viewBox="0 0 113 32"
    fill="#E5E5E5"
    xmlns="http://www.w3.org/2000/svg"
>
    <path
        d="M4.04297 16.7422V13.9766H7.24219C7.82031 13.9766 8.32812 13.8672 8.76562 13.6484C9.20312 13.4297 9.54297 13.125 9.78516 12.7344C10.0352 12.3359 10.1602 11.875 10.1602 11.3516C10.1602 10.5391 9.87891 9.90234 9.31641 9.44141C8.75391 8.97266 8.01562 8.73828 7.10156 8.73828H4.04297V5.72656H7.62891C8.73047 5.72656 9.71875 5.92969 10.5938 6.33594C11.4766 6.74219 12.1758 7.33203 12.6914 8.10547C13.207 8.87891 13.4648 9.82422 13.4648 10.9414C13.4648 12.0273 13.1992 13.0078 12.668 13.8828C12.1367 14.7578 11.375 15.4531 10.3828 15.9688C9.39062 16.4844 8.20703 16.7422 6.83203 16.7422H4.04297ZM1.69922 23V5.72656H5.05078V23H1.69922ZM11.1445 23L7.17188 16.2617L9.69141 14.2695L14.9414 23H11.1445ZM21.8259 23.1875C20.5056 23.1875 19.3572 22.9141 18.3806 22.3672C17.4041 21.8125 16.6462 21.0508 16.1072 20.082C15.5759 19.1055 15.3103 17.9922 15.3103 16.7422C15.3103 15.4219 15.5837 14.2812 16.1306 13.3203C16.6853 12.3516 17.4197 11.6016 18.3337 11.0703C19.2556 10.5391 20.2634 10.2734 21.3572 10.2734C22.3962 10.2734 23.3455 10.5156 24.2048 11C25.072 11.4766 25.7673 12.1523 26.2908 13.0273C26.8142 13.8945 27.0759 14.9219 27.0759 16.1094C27.0759 16.3828 27.0603 16.6445 27.0291 16.8945C26.9978 17.1445 26.9509 17.4375 26.8884 17.7734H17.7244V15.6172H24.0994C24.0994 15.0781 23.9822 14.6055 23.7478 14.1992C23.5134 13.793 23.1892 13.4766 22.7752 13.25C22.3689 13.0156 21.8962 12.8984 21.3572 12.8984C20.7009 12.8984 20.1306 13.0586 19.6462 13.3789C19.1697 13.6914 18.7986 14.1289 18.533 14.6914C18.2752 15.2539 18.1462 15.9062 18.1462 16.6484C18.1462 17.4219 18.2908 18.1016 18.5798 18.6875C18.8689 19.2734 19.283 19.7344 19.822 20.0703C20.3611 20.3984 20.9978 20.5625 21.7322 20.5625C22.1462 20.5625 22.5486 20.5156 22.9392 20.4219C23.3298 20.3203 23.6931 20.1875 24.0291 20.0234C24.365 19.8594 24.6541 19.6797 24.8962 19.4844L25.9509 22.0391C25.4509 22.3828 24.8416 22.6602 24.1228 22.8711C23.4119 23.082 22.6462 23.1875 21.8259 23.1875ZM29.3433 23V4.95312H32.5777V11.6562H32.8355L32.3081 13.4375V20.2461L32.9058 21.5117H32.4487V23H29.3433ZM36.2691 23.1875C35.2144 23.1875 34.2691 22.8984 33.4331 22.3203C32.605 21.7344 31.9448 20.9453 31.4527 19.9531C30.9683 18.9531 30.7222 17.8477 30.7144 16.6367C30.7222 15.4336 30.9605 14.3477 31.4292 13.3789C31.898 12.4102 32.5425 11.6445 33.3628 11.082C34.1831 10.5195 35.1245 10.2383 36.187 10.2383C37.1558 10.2383 38.0698 10.4883 38.9292 10.9883C39.7886 11.4805 40.4839 12.2109 41.0152 13.1797C41.5464 14.1484 41.8042 15.3359 41.7886 16.7422C41.8042 17.7969 41.6558 18.7266 41.3433 19.5312C41.0386 20.3359 40.6206 21.0117 40.0894 21.5586C39.5659 22.0977 38.9722 22.5039 38.3081 22.7773C37.6441 23.0508 36.9644 23.1875 36.2691 23.1875ZM35.5425 20.4453C36.1519 20.4375 36.687 20.2773 37.148 19.9648C37.6089 19.6445 37.9683 19.2031 38.2261 18.6406C38.4917 18.0781 38.6206 17.4258 38.6128 16.6836C38.6206 15.9336 38.4917 15.2812 38.2261 14.7266C37.9605 14.1719 37.5894 13.7422 37.1128 13.4375C36.6441 13.1328 36.105 12.9844 35.4956 12.9922C34.9253 12.9844 34.4097 13.1289 33.9487 13.4258C33.4878 13.7227 33.1206 14.1484 32.8472 14.7031C32.5816 15.25 32.4448 15.9102 32.437 16.6836C32.4448 17.4258 32.5816 18.0781 32.8472 18.6406C33.1206 19.2031 33.4878 19.6445 33.9487 19.9648C34.4175 20.2773 34.9487 20.4375 35.5425 20.4453ZM57.3445 23V4.95312H60.5789V11.6562H60.8367L60.3094 13.4375V20.2461L60.907 21.5117H60.45V23H57.3445ZM64.2703 23.1875C63.2156 23.1875 62.2703 22.8984 61.4344 22.3203C60.6063 21.7344 59.9461 20.9453 59.4539 19.9531C58.9695 18.9531 58.7234 17.8477 58.7156 16.6367C58.7234 15.4336 58.9617 14.3477 59.4305 13.3789C59.8992 12.4102 60.5438 11.6445 61.3641 11.082C62.1844 10.5195 63.1258 10.2383 64.1883 10.2383C65.157 10.2383 66.0711 10.4883 66.9305 10.9883C67.7898 11.4805 68.4852 12.2109 69.0164 13.1797C69.5477 14.1484 69.8055 15.3359 69.7898 16.7422C69.8055 17.7969 69.657 18.7266 69.3445 19.5312C69.0398 20.3359 68.6219 21.0117 68.0906 21.5586C67.5672 22.0977 66.9734 22.5039 66.3094 22.7773C65.6453 23.0508 64.9656 23.1875 64.2703 23.1875ZM63.5438 20.4453C64.1531 20.4375 64.6883 20.2773 65.1492 19.9648C65.6102 19.6445 65.9695 19.2031 66.2273 18.6406C66.493 18.0781 66.6219 17.4258 66.6141 16.6836C66.6219 15.9336 66.493 15.2812 66.2273 14.7266C65.9617 14.1719 65.5906 13.7422 65.1141 13.4375C64.6453 13.1328 64.1063 12.9844 63.4969 12.9922C62.9266 12.9844 62.4109 13.1289 61.95 13.4258C61.4891 13.7227 61.1219 14.1484 60.8484 14.7031C60.5828 15.25 60.4461 15.9102 60.4383 16.6836C60.4461 17.4258 60.5828 18.0781 60.8484 18.6406C61.1219 19.2031 61.4891 19.6445 61.95 19.9648C62.4188 20.2773 62.95 20.4375 63.5438 20.4453ZM72.0923 23V10.4492H75.3267V23H72.0923ZM73.6978 8.85547C73.1275 8.85547 72.6431 8.65625 72.2447 8.25781C71.8463 7.85156 71.647 7.36328 71.647 6.79297C71.647 6.21484 71.8463 5.73047 72.2447 5.33984C72.6431 4.94141 73.1275 4.74219 73.6978 4.74219C74.2759 4.74219 74.7603 4.94141 75.1509 5.33984C75.5494 5.73047 75.7486 6.21484 75.7486 6.79297C75.7486 7.36328 75.5494 7.85156 75.1509 8.25781C74.7603 8.65625 74.2759 8.85547 73.6978 8.85547ZM78.2269 23V10.4375H81.3675V12.0547H81.9066L80.8988 13.25C81.0706 12.5938 81.3714 12.043 81.8011 11.5977C82.2308 11.1523 82.7425 10.8164 83.3363 10.5898C83.9378 10.3633 84.5784 10.25 85.2581 10.25C86.1566 10.25 86.9144 10.457 87.5316 10.8711C88.1566 11.2773 88.6292 11.8242 88.9495 12.5117C89.2698 13.1992 89.43 13.9688 89.43 14.8203V23H86.1956V15.5234C86.1956 14.6875 85.9886 14.0586 85.5745 13.6367C85.1683 13.207 84.6175 12.9922 83.9222 12.9922C83.4613 12.9922 83.0433 13.0898 82.6683 13.2852C82.2933 13.4805 81.9964 13.7695 81.7777 14.1523C81.5667 14.5273 81.4613 14.9922 81.4613 15.5469V23H78.2269ZM97.9669 23.1875C96.6466 23.1875 95.4981 22.9141 94.5216 22.3672C93.545 21.8125 92.7872 21.0508 92.2481 20.082C91.7169 19.1055 91.4512 17.9922 91.4512 16.7422C91.4512 15.4219 91.7247 14.2812 92.2716 13.3203C92.8262 12.3516 93.5606 11.6016 94.4747 11.0703C95.3966 10.5391 96.4044 10.2734 97.4981 10.2734C98.5372 10.2734 99.4864 10.5156 100.346 11C101.213 11.4766 101.908 12.1523 102.432 13.0273C102.955 13.8945 103.217 14.9219 103.217 16.1094C103.217 16.3828 103.201 16.6445 103.17 16.8945C103.139 17.1445 103.092 17.4375 103.029 17.7734H93.8653V15.6172H100.24C100.24 15.0781 100.123 14.6055 99.8887 14.1992C99.6544 13.793 99.3302 13.4766 98.9161 13.25C98.5098 13.0156 98.0372 12.8984 97.4981 12.8984C96.8419 12.8984 96.2716 13.0586 95.7872 13.3789C95.3106 13.6914 94.9395 14.1289 94.6739 14.6914C94.4161 15.2539 94.2872 15.9062 94.2872 16.6484C94.2872 17.4219 94.4317 18.1016 94.7208 18.6875C95.0098 19.2734 95.4239 19.7344 95.963 20.0703C96.502 20.3984 97.1387 20.5625 97.8731 20.5625C98.2872 20.5625 98.6895 20.5156 99.0802 20.4219C99.4708 20.3203 99.8341 20.1875 100.17 20.0234C100.506 19.8594 100.795 19.6797 101.037 19.4844L102.092 22.0391C101.592 22.3828 100.982 22.6602 100.264 22.8711C99.5528 23.082 98.7872 23.1875 97.9669 23.1875ZM105.555 23V10.4492H108.789V23H105.555ZM107.16 8.85547C106.59 8.85547 106.105 8.65625 105.707 8.25781C105.308 7.85156 105.109 7.36328 105.109 6.79297C105.109 6.21484 105.308 5.73047 105.707 5.33984C106.105 4.94141 106.59 4.74219 107.16 4.74219C107.738 4.74219 108.223 4.94141 108.613 5.33984C109.012 5.73047 109.211 6.21484 109.211 6.79297C109.211 7.36328 109.012 7.85156 108.613 8.25781C108.223 8.65625 107.738 8.85547 107.16 8.85547Z"
    />
    <path
        d="M57.9757 25.0616L57.9756 25.0614C57.9619 25.0389 56.8538 23.287 53.8561 24.8988C50.6963 26.5976 48.1705 25.0481 47.1752 23.5347C45.8671 22.9584 44.697 21.9799 43.8842 20.6456C41.8898 17.3719 42.7867 13.2402 45.8874 11.417C48.988 9.59395 53.1183 10.7699 55.1127 14.0436C57.107 17.3172 56.2102 21.4489 53.1095 23.272C51.6958 24.1032 50.0692 24.3047 48.5274 23.9746C49.5211 24.784 51.2389 25.46 53.4902 24.2496C57.0769 22.3212 58.5612 24.6782 58.5804 24.7097L57.9757 25.0616ZM50.6017 13.5835C50.5676 12.8633 49.9663 12.2704 49.2584 12.2593C48.5506 12.2481 48.0042 12.823 48.0382 13.5431C48.0722 14.2634 48.6736 14.8562 49.3815 14.8674C50.0894 14.8786 50.6357 14.3037 50.6017 13.5835ZM47.3314 16.0728C47.6559 15.4546 47.4082 14.6538 46.7782 14.284C46.1482 13.9142 45.3744 14.1156 45.0499 14.7338C44.7253 15.352 44.973 16.1528 45.6031 16.5226C46.2331 16.8923 47.0069 16.6909 47.3314 16.0728ZM53.7069 14.8701C53.3236 14.2408 52.5296 14.0148 51.9335 14.3652C51.3376 14.7156 51.1651 15.5099 51.5485 16.1392C51.9319 16.7685 52.7259 16.9945 53.3218 16.6441C53.9179 16.2936 54.0903 15.4994 53.7069 14.8701ZM49.1065 16.7013C48.77 16.8991 48.6727 17.3475 48.8891 17.7028C49.1056 18.0581 49.5538 18.1857 49.8903 17.9878C50.2268 17.79 50.3241 17.3416 50.1077 16.9863C49.8913 16.631 49.443 16.5034 49.1065 16.7013ZM47.4484 18.5499C47.065 17.9206 46.271 17.6946 45.675 18.0451C45.0789 18.3955 44.9065 19.1898 45.2899 19.8191C45.6732 20.4483 46.4672 20.6744 47.0633 20.3239C47.6593 19.9735 47.8317 19.1792 47.4484 18.5499ZM53.9469 19.9554C54.2714 19.3372 54.0237 18.5364 53.3937 18.1666C52.7637 17.7968 51.9899 17.9982 51.6654 18.6164C51.3409 19.2345 51.5885 20.0354 52.2186 20.4052C52.8486 20.7749 53.6224 20.5735 53.9469 19.9554ZM50.9586 21.146C50.9245 20.4258 50.3231 19.8329 49.6153 19.8217C48.9074 19.8106 48.3612 20.3854 48.3951 21.1056C48.4291 21.8258 49.0305 22.4187 49.7384 22.4298C50.4463 22.441 50.9926 21.8662 50.9586 21.146Z"
    />
</svg>