<svg width="32" height="32" viewBox="0 0 32 32" fill="none" xmlns="http://www.w3.org/2000/svg">
<rect width="32" height="32" rx="8" fill="#0A0A0A"/>
<path d="M27.1173 26.1562C27.0973 26.1233 25.4799 23.5675 21.1045 25.9187C16.4927 28.3968 12.806 26.1365 11.3534 23.9289C9.44416 23.0882 7.73626 21.6608 6.54989 19.7144C3.63896 14.9388 4.94801 8.91169 9.47367 6.25221C13.9993 3.59276 20.0277 5.30813 22.9386 10.0837C25.8495 14.8591 24.5405 20.8863 20.0149 23.5457C17.9515 24.7582 15.5773 25.0521 13.327 24.5705C14.7774 25.7512 17.2846 26.7375 20.5705 24.9717C25.8056 22.1587 27.972 25.597 28 25.643L27.1173 26.1562ZM16.3545 9.4126C16.3048 8.36196 15.4271 7.49711 14.394 7.48082C13.3608 7.46452 12.5634 8.30312 12.613 9.35367C12.6626 10.4043 13.5404 11.2692 14.5736 11.2855C15.6068 11.3017 16.4041 10.4631 16.3545 9.4126ZM11.5814 13.0438C12.055 12.1421 11.6934 10.9738 10.7739 10.4344C9.85434 9.89501 8.72497 10.1887 8.25135 11.0905C7.77764 11.9923 8.13918 13.1605 9.05874 13.6999C9.97833 14.2392 11.1078 13.9455 11.5814 13.0438ZM20.8868 11.2894C20.3273 10.3713 19.1684 10.0416 18.2984 10.5529C17.4286 11.064 17.1769 12.2226 17.7365 13.1406C18.296 14.0586 19.4549 14.3883 20.3247 13.8772C21.1948 13.3659 21.4464 12.2073 20.8868 11.2894ZM14.1723 13.9606C13.6811 14.2492 13.539 14.9033 13.8549 15.4216C14.1708 15.9398 14.8251 16.126 15.3163 15.8374C15.8073 15.5488 15.9494 14.8946 15.6336 14.3764C15.3176 13.8581 14.6634 13.672 14.1723 13.9606ZM11.7521 16.6573C11.1925 15.7393 10.0336 15.4096 9.16369 15.9208C8.29367 16.4321 8.04205 17.5907 8.60161 18.5087C9.16115 19.4266 10.32 19.7564 11.19 19.2451C12.06 18.7339 12.3116 17.5753 11.7521 16.6573ZM21.2371 18.7075C21.7108 17.8058 21.3492 16.6376 20.4297 16.0981C19.5101 15.5587 18.3807 15.8525 17.907 16.7542C17.4334 17.656 17.7949 18.8243 18.7145 19.3636C19.6341 19.903 20.7635 19.6093 21.2371 18.7075ZM16.8754 20.4443C16.8258 19.3937 15.948 18.5288 14.9148 18.5125C13.8817 18.4963 13.0844 19.3348 13.1339 20.3854C13.1836 21.436 14.0613 22.3009 15.0945 22.3171C16.1278 22.3334 16.9251 21.495 16.8754 20.4443Z" fill="#E5E5E5" stroke="#E5E5E5" stroke-width="0.423139"/>
</svg>
